<svg xmlns="http://www.w3.org/2000/svg" viewBox="0 0 400 300" style="background: #000;">
  <!-- Title -->
  <text x="120" y="25" fill="#00ffff" font-family="monospace" font-size="14" font-weight="bold">DATA TABLE</text>
  
  <!-- Table structure -->
  <g stroke="#00ffff" stroke-width="1.5" fill="none">
    <!-- Outer border -->
    <rect x="50" y="40" width="300" height="240"/>
    
    <!-- Column lines -->
    <line x1="110" y1="40" x2="110" y2="280"/>
    <line x1="170" y1="40" x2="170" y2="280"/>
    <line x1="230" y1="40" x2="230" y2="280"/>
    <line x1="290" y1="40" x2="290" y2="280"/>
    
    <!-- Row lines -->
    <line x1="50" y1="80" x2="350" y2="80"/>
    <line x1="50" y1="120" x2="350" y2="120"/>
    <line x1="50" y1="160" x2="350" y2="160"/>
    <line x1="50" y1="200" x2="350" y2="200"/>
    <line x1="50" y1="240" x2="350" y2="240"/>
  </g>
  
  <!-- Column headers -->
  <text x="60" y="65" fill="#ffff00" font-family="monospace" font-size="12" font-weight="bold">Row/Col</text>
  <text x="125" y="65" fill="#ffff00" font-family="monospace" font-size="12" font-weight="bold">5</text>
  <text x="182" y="65" fill="#ffff00" font-family="monospace" font-size="12" font-weight="bold">10</text>
  <text x="242" y="65" fill="#ffff00" font-family="monospace" font-size="12" font-weight="bold">15</text>
  <text x="302" y="65" fill="#ffff00" font-family="monospace" font-size="12" font-weight="bold">20</text>
  
  <!-- Row labels and data -->
  <!-- Row 10 -->
  <text x="70" y="105" fill="#ffff00" font-family="monospace" font-size="12" font-weight="bold">10</text>
  <text x="127" y="105" fill="#00ffff" font-family="monospace" font-size="12">23</text>
  <text x="187" y="105" fill="#00ffff" font-family="monospace" font-size="12">45</text>
  <text x="247" y="105" fill="#00ffff" font-family="monospace" font-size="12">67</text>
  <text x="307" y="105" fill="#00ffff" font-family="monospace" font-size="12">89</text>
  
  <!-- Row 20 -->
  <text x="70" y="145" fill="#ffff00" font-family="monospace" font-size="12" font-weight="bold">20</text>
  <text x="127" y="145" fill="#00ffff" font-family="monospace" font-size="12">34</text>
  <text x="187" y="145" fill="#00ffff" font-family="monospace" font-size="12">56</text>
  <text x="247" y="145" fill="#00ffff" font-family="monospace" font-size="12">78</text>
  <text x="307" y="145" fill="#00ffff" font-family="monospace" font-size="12">12</text>
  
  <!-- Row 30 -->
  <text x="70" y="185" fill="#ffff00" font-family="monospace" font-size="12" font-weight="bold">30</text>
  <text x="127" y="185" fill="#00ffff" font-family="monospace" font-size="12">45</text>
  <text x="187" y="185" fill="#00ffff" font-family="monospace" font-size="12">67</text>
  <text x="187" y="185" fill="#ff00ff" font-family="monospace" font-size="12" font-weight="bold">67</text>
  <text x="247" y="185" fill="#00ffff" font-family="monospace" font-size="12">89</text>
  <text x="307" y="185" fill="#00ffff" font-family="monospace" font-size="12">23</text>
  
  <!-- Row 40 -->
  <text x="70" y="225" fill="#ffff00" font-family="monospace" font-size="12" font-weight="bold">40</text>
  <text x="127" y="225" fill="#00ffff" font-family="monospace" font-size="12">56</text>
  <text x="187" y="225" fill="#00ffff" font-family="monospace" font-size="12">78</text>
  <text x="247" y="225" fill="#00ffff" font-family="monospace" font-size="12">34</text>
  <text x="307" y="225" fill="#00ffff" font-family="monospace" font-size="12">45</text>
  
  <!-- Row 50 -->
  <text x="70" y="265" fill="#ffff00" font-family="monospace" font-size="12" font-weight="bold">50</text>
  <text x="127" y="265" fill="#00ffff" font-family="monospace" font-size="12">67</text>
  <text x="187" y="265" fill="#00ffff" font-family="monospace" font-size="12">89</text>
  <text x="247" y="265" fill="#00ffff" font-family="monospace" font-size="12">12</text>
  <text x="307" y="265" fill="#00ffff" font-family="monospace" font-size="12">56</text>
  
  <!-- Highlight example cell (Row 30, Col 10) -->
  <rect x="170" y="160" width="60" height="40" fill="none" stroke="#ff00ff" stroke-width="3"/>
</svg>
